<?xml version="1.0" encoding="UTF-8" standalone="no"?><!DOCTYPE svg PUBLIC "-//W3C//DTD SVG 1.1//EN" "http://www.w3.org/Graphics/SVG/1.1/DTD/svg11.dtd"><svg width="100%" height="100%" viewBox="0 0 1182 1182" version="1.1" xmlns="http://www.w3.org/2000/svg" xmlns:xlink="http://www.w3.org/1999/xlink" xml:space="preserve" xmlns:serif="http://www.serif.com/" style="fill-rule:evenodd;clip-rule:evenodd;stroke-linejoin:round;stroke-miterlimit:2;"><path d="M796.046,877.512c0.013,30.397 14.876,58.871 39.808,76.26c24.933,17.389 56.788,21.5 85.318,11.01c48.755,-17.97 93.546,-46.389 130.978,-83.853c141.288,-141.407 141.191,-370.918 -0.216,-512.206c-37.464,-37.431 -82.279,-65.813 -131.05,-83.739c-28.538,-10.465 -60.389,-6.328 -85.306,11.082c-24.917,17.41 -39.756,45.895 -39.743,76.291c-0.003,0 -0.003,0.001 -0.003,0.001c0.016,36.653 23.358,69.232 58.06,81.033c26.141,8.806 50.163,23.573 70.045,43.438c70.703,70.644 70.751,185.399 0.108,256.103c-19.865,19.881 -43.875,34.668 -70,43.52c-34.682,11.827 -57.991,44.416 -57.975,81.059c-0.024,0 -0.024,0.001 -0.024,0.001Z" style="fill:#01fadc;"/><path d="M453.747,877.512c-0.012,30.397 -14.876,58.871 -39.808,76.26c-24.932,17.389 -56.788,21.5 -85.318,11.01c-48.754,-17.97 -93.546,-46.389 -130.978,-83.853c-141.287,-141.407 -141.19,-370.918 0.217,-512.206c37.463,-37.431 82.279,-65.813 131.05,-83.739c28.538,-10.465 60.389,-6.328 85.305,11.082c24.917,17.41 39.756,45.895 39.743,76.291c0.003,0 0.003,0.001 0.003,0.001c-0.016,36.653 -23.358,69.232 -58.059,81.033c-26.141,8.806 -50.164,23.573 -70.045,43.438c-70.704,70.644 -70.752,185.399 -0.108,256.103c19.864,19.881 43.874,34.668 70,43.52c34.682,11.827 57.99,44.416 57.974,81.059c0.024,0 0.024,0.001 0.024,0.001Z" style="fill:#01fadc;"/><path d="M876.042,624.934c-0,-65.056 -52.818,-117.873 -117.874,-117.873l-266.543,-0c-65.056,-0 -117.874,52.817 -117.874,117.873c0,65.057 52.818,117.874 117.874,117.874l266.543,0c65.056,0 117.874,-52.817 117.874,-117.874Z" style="fill:#01fadc;"/><path d="M761.701,843.125c0.012,30.397 14.876,58.871 39.808,76.26c24.932,17.389 56.787,21.5 85.317,11.01c48.755,-17.97 93.547,-46.389 130.979,-83.853c141.287,-141.406 141.19,-370.918 -0.217,-512.205c-37.463,-37.432 -82.279,-65.814 -131.05,-83.74c-28.538,-10.465 -60.389,-6.327 -85.305,11.082c-24.917,17.41 -39.756,45.895 -39.743,76.291c-0.003,0.001 -0.003,0.001 -0.003,0.001c0.015,36.653 23.358,69.232 58.059,81.033c26.141,8.807 50.164,23.574 70.045,43.438c70.703,70.644 70.752,185.4 0.108,256.103c-19.864,19.881 -43.874,34.669 -70,43.52c-34.682,11.827 -57.99,44.416 -57.975,81.059c-0.023,0.001 -0.023,0.001 -0.023,0.001Z" style="fill:#8c8c8c;"/><path d="M419.402,843.125c-0.013,30.397 -14.876,58.871 -39.809,76.26c-24.932,17.389 -56.787,21.5 -85.317,11.01c-48.755,-17.97 -93.547,-46.389 -130.978,-83.853c-141.288,-141.406 -141.191,-370.918 0.216,-512.205c37.464,-37.432 82.279,-65.814 131.05,-83.74c28.538,-10.465 60.389,-6.327 85.306,11.082c24.916,17.41 39.755,45.895 39.743,76.291c0.002,0.001 0.002,0.001 0.002,0.001c-0.015,36.653 -23.357,69.232 -58.059,81.033c-26.141,8.807 -50.163,23.574 -70.045,43.438c-70.703,70.644 -70.752,185.4 -0.108,256.103c19.865,19.881 43.875,34.669 70,43.52c34.682,11.827 57.99,44.416 57.975,81.059c0.024,0.001 0.024,0.001 0.024,0.001Z" style="fill:#8c8c8c;"/><path d="M841.696,590.548c0,-65.057 -52.817,-117.874 -117.873,-117.874l-266.543,-0c-65.057,-0 -117.874,52.817 -117.874,117.874c-0,65.056 52.817,117.874 117.874,117.874l266.543,-0c65.056,-0 117.873,-52.818 117.873,-117.874Z" style="fill:#8c8c8c;"/></svg>